<?xml version="1.0" encoding="UTF-8"?>
<svg width="640px" height="70px" viewBox="0 0 640 70" version="1.1" xmlns="http://www.w3.org/2000/svg" xmlns:xlink="http://www.w3.org/1999/xlink">
    <title>cts-logo</title>
    <g id="cts-logo" stroke="none" stroke-width="1" fill="none" fill-rule="evenodd">
        <g id="Change-the-story.-Copy" transform="translate(1.800000, -2.656000)" fill-rule="nonzero">
            <path d="M27.54,56.376 C29.82,56.376 32.184,55.992 34.632,55.224 C37.08,54.456 38.7,53.832 39.492,53.352 C40.284,52.872 41.112,52.368 41.976,51.84 C42.84,51.312 43.596,50.712 44.244,50.04 C44.892,49.368 45.216,48.528 45.216,47.52 C45.216,46.512 44.688,45.168 43.632,43.488 C41.904,40.8 40.296,39.456 38.808,39.456 C38.136,39.456 36.984,39.936 35.352,40.896 L35.352,40.896 L34.056,41.832 C33.48,42.216 32.532,42.6 31.212,42.984 C29.892,43.368 28.488,43.56 27,43.56 C23.832,43.56 20.784,42.504 17.856,40.392 C16.368,39.288 15.144,37.776 14.184,35.856 C13.224,33.936 12.744,31.764 12.744,29.34 C12.744,26.916 13.224,24.744 14.184,22.824 C15.144,20.904 16.344,19.416 17.784,18.36 C20.808,16.2 23.88,15.12 27,15.12 C30.36,15.12 33.048,15.936 35.064,17.568 C36.648,18.624 37.872,19.152 38.736,19.152 C40.224,19.152 41.904,17.856 43.776,15.264 C44.784,13.872 45.288,12.54 45.288,11.268 C45.288,9.996 44.664,8.856 43.416,7.848 C42.936,7.512 42.264,7.08 41.4,6.552 L41.4,6.552 L39.672,5.544 C38.472,4.824 36.708,4.116 34.38,3.42 C32.052,2.724 29.76,2.376 27.504,2.376 C22.752,2.376 18.024,3.672 13.32,6.264 C10.824,7.608 8.604,9.276 6.66,11.268 C4.716,13.26 3.12,15.78 1.872,18.828 C0.624,21.876 -5.1159077e-13,25.272 -5.1159077e-13,29.016 C-5.1159077e-13,32.76 0.636,36.228 1.908,39.42 C3.18,42.612 4.8,45.228 6.768,47.268 C8.736,49.308 10.956,51.036 13.428,52.452 C15.9,53.868 18.3,54.876 20.628,55.476 C22.956,56.076 25.26,56.376 27.54,56.376 Z M82.632,55.656 C85.704,55.656 87.552,55.032 88.176,53.784 C88.56,53.064 88.788,52.428 88.86,51.876 C88.932,51.324 88.968,50.496 88.968,49.392 L88.968,49.392 L88.968,36.72 C88.968,31.44 87.372,26.976 84.18,23.328 C80.988,19.68 76.992,17.856 72.192,17.856 C68.976,17.856 66.168,19.32 63.768,22.248 L63.768,22.248 L63.768,6.336 C63.768,5.232 63.732,4.404 63.66,3.852 C63.588,3.3 63.36,2.664 62.976,1.944 C62.352,0.648 60.528,1.42108547e-14 57.504,1.42108547e-14 C54.432,1.42108547e-14 52.56,0.648 51.888,1.944 C51.552,2.616 51.348,3.228 51.276,3.78 C51.204,4.332 51.168,5.16 51.168,6.264 L51.168,6.264 L51.1688926,49.6264463 C51.174843,50.6221488 51.2105455,51.36 51.276,51.84 C51.348,52.368 51.552,52.992 51.888,53.712 C52.56,55.008 54.408,55.656 57.432,55.656 C60.504,55.656 62.352,55.032 62.976,53.784 C63.36,53.064 63.588,52.428 63.66,51.876 C63.732,51.324 63.768,50.496 63.768,49.392 L63.768,49.392 L63.768,35.424 C63.96,34.128 64.704,32.964 66,31.932 C67.296,30.9 68.796,30.384 70.5,30.384 C72.204,30.384 73.608,30.936 74.712,32.04 C75.816,33.144 76.368,34.68 76.368,36.648 L76.368,36.648 L76.3688926,49.5550413 C76.374843,50.5547107 76.4105455,51.3163636 76.476,51.84 C76.548,52.416 76.776,53.064 77.16,53.784 C77.88,55.032 79.704,55.656 82.632,55.656 Z M127.428,55.512 C130.044,55.512 131.688,54.888 132.36,53.64 C132.696,52.92 132.9,52.284 132.972,51.732 C133.044,51.18 133.08,50.352 133.08,49.248 L133.08,49.248 L133.08,24.048 C133.08,22.944 133.044,22.116 132.972,21.564 C132.9,21.012 132.684,20.376 132.324,19.656 C131.964,18.936 131.328,18.432 130.416,18.144 C129.504,17.856 128.112,17.712 126.24,17.712 C122.736,17.712 120.84,19.056 120.552,21.744 C120.216,21.264 119.784,20.772 119.256,20.268 C118.728,19.764 117.792,19.224 116.448,18.648 C115.104,18.072 113.616,17.784 111.984,17.784 C107.712,17.784 103.788,19.668 100.212,23.436 C96.636,27.204 94.848,31.596 94.848,36.612 C94.848,41.628 96.624,46.032 100.176,49.824 C103.728,53.616 107.58,55.512 111.732,55.512 C115.884,55.512 118.848,54.24 120.624,51.696 C120.768,52.944 121.284,53.892 122.172,54.54 C123.06,55.188 124.812,55.512 127.428,55.512 Z M113.856,42.912 C112.08,42.912 110.568,42.276 109.32,41.004 C108.072,39.732 107.448,38.304 107.448,36.72 C107.448,35.136 108.036,33.672 109.212,32.328 C110.388,30.984 111.924,30.312 113.82,30.312 C115.716,30.312 117.228,30.984 118.356,32.328 C119.484,33.672 120.048,35.124 120.048,36.684 C120.048,38.244 119.46,39.672 118.284,40.968 C117.108,42.264 115.632,42.912 113.856,42.912 Z M171.576,55.584 C174.648,55.584 176.52,54.936 177.192,53.64 C177.528,52.968 177.732,52.356 177.804,51.804 C177.876,51.252 177.912,50.424 177.912,49.32 L177.912,49.32 L177.912,36.648 C177.912,31.368 176.316,26.892 173.124,23.22 C169.932,19.548 165.936,17.712 161.136,17.712 C159.168,17.712 157.368,18.264 155.736,19.368 C155.112,19.752 154.464,20.256 153.792,20.88 C153.12,21.504 152.688,21.984 152.496,22.32 C152.496,21.168 152.256,20.184 151.776,19.368 C151.104,18.264 149.304,17.712 146.376,17.712 C143.352,17.712 141.504,18.312 140.832,19.512 C140.448,20.184 140.22,20.796 140.148,21.348 C140.076,21.9 140.04,22.704 140.04,23.76 L140.04,23.76 L140.04,49.248 C140.04,50.352 140.076,51.18 140.148,51.732 C140.22,52.284 140.424,52.92 140.76,53.64 C141.432,54.936 143.28,55.584 146.304,55.584 C149.376,55.584 151.224,54.936 151.848,53.64 C152.232,52.968 152.46,52.356 152.532,51.804 C152.604,51.252 152.64,50.424 152.64,49.32 L152.64,49.32 L152.64,36.576 C152.64,34.704 153.228,33.192 154.404,32.04 C155.58,30.888 157.116,30.312 159.012,30.312 C160.908,30.312 162.42,30.864 163.548,31.968 C164.676,33.072 165.24,34.608 165.24,36.576 L165.24,36.576 L165.24,49.248 C165.24,50.88 165.384,52.104 165.672,52.92 C166.2,54.696 168.168,55.584 171.576,55.584 Z M202.512,72 C207.312,72 211.632,70.308 215.472,66.924 C219.312,63.54 221.232,59.088 221.232,53.568 L221.232,53.568 L221.231107,23.4660496 C221.225157,22.5100165 221.189455,21.792 221.124,21.312 C221.052,20.784 220.836,20.172 220.476,19.476 C220.116,18.78 219.504,18.288 218.64,18 C217.776,17.712 216.408,17.568 214.536,17.568 C212.664,17.568 211.308,17.916 210.468,18.612 C209.628,19.308 209.136,20.328 208.992,21.672 C208.704,21.24 208.308,20.772 207.804,20.268 C207.3,19.764 206.376,19.212 205.032,18.612 C203.688,18.012 202.2,17.712 200.568,17.712 C196.392,17.712 192.552,19.56 189.048,23.256 C185.544,26.952 183.792,31.248 183.792,36.144 C183.792,41.04 185.532,45.324 189.012,48.996 C192.492,52.668 196.224,54.504 200.208,54.504 C204.192,54.504 207.096,53.304 208.92,50.904 L208.92,50.904 L208.92,53.064 C208.92,55.08 208.344,56.808 207.192,58.248 C206.04,59.688 204.552,60.408 202.728,60.408 C200.04,60.408 197.544,59.52 195.24,57.744 C194.52,57.168 193.824,56.88 193.152,56.88 C192.48,56.88 191.892,57.072 191.388,57.456 C190.884,57.84 190.176,58.536 189.264,59.544 C187.824,60.984 187.104,62.64 187.104,64.512 C187.104,65.952 188.76,67.56 192.072,69.336 C195.384,71.112 198.864,72 202.512,72 Z M202.404,42.264 C200.652,42.264 199.164,41.64 197.94,40.392 C196.716,39.144 196.104,37.752 196.104,36.216 C196.104,34.632 196.68,33.192 197.832,31.896 C198.984,30.6 200.496,29.952 202.368,29.952 C204.24,29.952 205.728,30.612 206.832,31.932 C207.936,33.252 208.488,34.668 208.488,36.18 C208.488,37.692 207.912,39.084 206.76,40.356 C205.608,41.628 204.156,42.264 202.404,42.264 Z M247.56,56.592 C257.784,56.592 262.896,54.456 262.896,50.184 C262.896,49.272 262.584,48.168 261.96,46.872 C260.856,44.712 259.536,43.632 258,43.632 C257.232,43.632 256.272,43.896 255.12,44.424 L255.12,44.424 L254.328,44.712 C252.744,45.288 250.56,45.576 247.776,45.576 C246.192,45.576 244.608,45.12 243.024,44.208 C241.44,43.296 240.648,42.168 240.648,40.824 L240.648,40.824 L257.712,40.824 C259.488,40.824 261.108,40.116 262.572,38.7 C264.036,37.284 264.768,35.112 264.768,32.184 C264.768,29.208 263.952,26.472 262.32,23.976 C259.2,19.272 254.304,16.92 247.632,16.92 C241.776,16.92 236.892,18.732 232.98,22.356 C229.068,25.98 227.112,30.816 227.112,36.864 C227.112,41.664 228.624,46.008 231.648,49.896 C233.184,51.912 235.332,53.532 238.092,54.756 C240.852,55.98 244.008,56.592 247.56,56.592 Z M249.576,34.272 L240.504,34.272 C240.504,32.832 241.272,31.476 242.808,30.204 C244.344,28.932 245.892,28.296 247.452,28.296 C249.012,28.296 250.212,28.632 251.052,29.304 C251.892,29.976 252.312,30.864 252.312,31.968 C252.312,33.504 251.4,34.272 249.576,34.272 L249.576,34.272 Z M310.152,55.656 C311.208,55.656 312.012,55.62 312.564,55.548 C313.116,55.476 313.752,55.272 314.472,54.936 C315.816,54.264 316.488,52.416 316.488,49.392 C316.488,46.8 315.936,45.192 314.832,44.568 C314.16,44.184 313.524,43.956 312.924,43.884 C312.324,43.812 311.46,43.776 310.332,43.776 C309.204,43.776 308.436,43.488 308.028,42.912 C307.62,42.336 307.416,41.4 307.416,40.104 L307.416,40.104 L307.416,30.168 L312.096,30.456 C313.2,30.456 314.028,30.42 314.58,30.348 C315.132,30.276 315.768,30.072 316.488,29.736 C317.784,29.064 318.432,27.216 318.432,24.192 C318.432,21.12 317.808,19.272 316.56,18.648 C315.84,18.264 315.204,18.036 314.652,17.964 C314.1,17.892 313.284,17.856 312.204,17.856 C311.124,17.856 309.528,17.952 307.416,18.144 L307.416,18.144 L307.416,11.088 C307.416,9.408 307.296,8.184 307.056,7.416 C306.432,5.64 304.488,4.752 301.224,4.752 C298.152,4.752 296.304,5.352 295.68,6.552 C295.296,7.176 295.068,7.752 294.996,8.28 C294.924,8.808 294.888,9.624 294.888,10.728 L294.888,18.144 L292.512,17.856 C291.36,17.856 290.4,18.168 289.632,18.792 C289.2,19.176 288.864,19.812 288.624,20.7 C288.384,21.588 288.264,23.016 288.264,24.984 C288.264,26.952 288.612,28.344 289.308,29.16 C290.004,29.976 290.88,30.384 291.936,30.384 C292.992,30.384 293.976,30.312 294.888,30.168 L294.888,30.168 L294.888,40.824 C294.888,46.2 296.184,50.016 298.776,52.272 C301.368,54.528 305.16,55.656 310.152,55.656 Z M355.056,55.656 C358.128,55.656 359.976,55.032 360.6,53.784 C360.984,53.064 361.212,52.428 361.284,51.876 C361.356,51.324 361.392,50.496 361.392,49.392 L361.392,49.392 L361.392,36.72 C361.392,31.44 359.796,26.976 356.604,23.328 C353.412,19.68 349.416,17.856 344.616,17.856 C341.4,17.856 338.592,19.32 336.192,22.248 L336.192,22.248 L336.192,6.336 C336.192,5.232 336.156,4.404 336.084,3.852 C336.012,3.3 335.784,2.664 335.4,1.944 C334.776,0.648 332.952,1.42108547e-14 329.928,1.42108547e-14 C326.856,1.42108547e-14 324.984,0.648 324.312,1.944 C323.976,2.616 323.772,3.228 323.7,3.78 C323.628,4.332 323.592,5.16 323.592,6.264 L323.592,6.264 L323.592893,49.6264463 C323.598843,50.6221488 323.634545,51.36 323.7,51.84 C323.772,52.368 323.976,52.992 324.312,53.712 C324.984,55.008 326.832,55.656 329.856,55.656 C332.928,55.656 334.776,55.032 335.4,53.784 C335.784,53.064 336.012,52.428 336.084,51.876 C336.156,51.324 336.192,50.496 336.192,49.392 L336.192,49.392 L336.192,35.424 C336.384,34.128 337.128,32.964 338.424,31.932 C339.72,30.9 341.22,30.384 342.924,30.384 C344.628,30.384 346.032,30.936 347.136,32.04 C348.24,33.144 348.792,34.68 348.792,36.648 L348.792,36.648 L348.792893,49.5550413 C348.798843,50.5547107 348.834545,51.3163636 348.9,51.84 C348.972,52.416 349.2,53.064 349.584,53.784 C350.304,55.032 352.128,55.656 355.056,55.656 Z M387.72,56.592 C397.944,56.592 403.056,54.456 403.056,50.184 C403.056,49.272 402.744,48.168 402.12,46.872 C401.016,44.712 399.696,43.632 398.16,43.632 C397.392,43.632 396.432,43.896 395.28,44.424 L395.28,44.424 L394.488,44.712 C392.904,45.288 390.72,45.576 387.936,45.576 C386.352,45.576 384.768,45.12 383.184,44.208 C381.6,43.296 380.808,42.168 380.808,40.824 L380.808,40.824 L397.872,40.824 C399.648,40.824 401.268,40.116 402.732,38.7 C404.196,37.284 404.928,35.112 404.928,32.184 C404.928,29.208 404.112,26.472 402.48,23.976 C399.36,19.272 394.464,16.92 387.792,16.92 C381.936,16.92 377.052,18.732 373.14,22.356 C369.228,25.98 367.272,30.816 367.272,36.864 C367.272,41.664 368.784,46.008 371.808,49.896 C373.344,51.912 375.492,53.532 378.252,54.756 C381.012,55.98 384.168,56.592 387.72,56.592 Z M389.736,34.272 L380.664,34.272 C380.664,32.832 381.432,31.476 382.968,30.204 C384.504,28.932 386.052,28.296 387.612,28.296 C389.172,28.296 390.372,28.632 391.212,29.304 C392.052,29.976 392.472,30.864 392.472,31.968 C392.472,33.504 391.56,34.272 389.736,34.272 L389.736,34.272 Z M443.868,56.304 C448.5,56.304 452.352,55.56 455.424,54.072 C457.104,53.208 458.412,51.9 459.348,50.148 C460.284,48.396 460.752,46.272 460.752,43.776 C460.752,41.28 460.284,39.204 459.348,37.548 C458.412,35.892 457.248,34.728 455.856,34.056 C452.88,32.568 449.808,31.656 446.64,31.32 C443.376,30.888 441.744,29.952 441.744,28.512 C441.744,27.456 443.16,26.928 445.992,26.928 C447.816,26.928 449.508,27.288 451.068,28.008 C452.628,28.728 453.696,29.088 454.272,29.088 C455.376,29.088 456.456,28.248 457.512,26.568 C458.568,24.888 459.096,23.472 459.096,22.32 C459.096,21.168 458.256,20.208 456.576,19.44 C452.976,17.808 449.472,16.992 446.064,16.992 C435.648,16.992 430.44,20.784 430.44,28.368 C430.44,30.912 430.896,33.108 431.808,34.956 C432.72,36.804 433.872,38.16 435.264,39.024 C438.24,40.848 441.24,41.976 444.264,42.408 C447.48,42.84 449.088,43.512 449.088,44.424 C449.088,45.576 447.624,46.152 444.696,46.152 C443.064,46.152 441.24,45.564 439.224,44.388 C437.208,43.212 435.612,42.624 434.436,42.624 C433.26,42.624 432.408,43.032 431.88,43.848 C430.056,46.392 429.144,48.288 429.144,49.536 C429.144,50.784 429.6,51.696 430.512,52.272 C434.784,54.96 439.236,56.304 443.868,56.304 Z M485.568,55.656 C486.624,55.656 487.428,55.62 487.98,55.548 C488.532,55.476 489.168,55.272 489.888,54.936 C491.232,54.264 491.904,52.416 491.904,49.392 C491.904,46.8 491.352,45.192 490.248,44.568 C489.576,44.184 488.94,43.956 488.34,43.884 C487.74,43.812 486.876,43.776 485.748,43.776 C484.62,43.776 483.852,43.488 483.444,42.912 C483.036,42.336 482.832,41.4 482.832,40.104 L482.832,40.104 L482.832,30.168 L487.512,30.456 C488.616,30.456 489.444,30.42 489.996,30.348 C490.548,30.276 491.184,30.072 491.904,29.736 C493.2,29.064 493.848,27.216 493.848,24.192 C493.848,21.12 493.224,19.272 491.976,18.648 C491.256,18.264 490.62,18.036 490.068,17.964 C489.516,17.892 488.7,17.856 487.62,17.856 C486.54,17.856 484.944,17.952 482.832,18.144 L482.832,18.144 L482.832,11.088 C482.832,9.408 482.712,8.184 482.472,7.416 C481.848,5.64 479.904,4.752 476.64,4.752 C473.568,4.752 471.72,5.352 471.096,6.552 C470.712,7.176 470.484,7.752 470.412,8.28 C470.34,8.808 470.304,9.624 470.304,10.728 L470.304,18.144 L467.928,17.856 C466.776,17.856 465.816,18.168 465.048,18.792 C464.616,19.176 464.28,19.812 464.04,20.7 C463.8,21.588 463.68,23.016 463.68,24.984 C463.68,26.952 464.028,28.344 464.724,29.16 C465.42,29.976 466.296,30.384 467.352,30.384 C468.408,30.384 469.392,30.312 470.304,30.168 L470.304,30.168 L470.304,40.824 C470.304,46.2 471.6,50.016 474.192,52.272 C476.784,54.528 480.576,55.656 485.568,55.656 Z M517.728,56.304 C520.896,56.304 523.956,55.572 526.908,54.108 C529.86,52.644 532.368,50.364 534.432,47.268 C536.496,44.172 537.528,40.632 537.528,36.648 C537.528,30.888 535.536,26.148 531.552,22.428 C527.568,18.708 522.984,16.848 517.8,16.848 C512.616,16.848 508.008,18.72 503.976,22.464 C499.944,26.208 497.928,30.96 497.928,36.72 C497.928,40.56 498.948,44.004 500.988,47.052 C503.028,50.1 505.536,52.404 508.512,53.964 C511.488,55.524 514.56,56.304 517.728,56.304 Z M517.656,43.632 C516.072,43.632 514.512,43.056 512.976,41.904 C511.44,40.704 510.672,38.94 510.672,36.612 C510.672,34.284 511.416,32.52 512.904,31.32 C514.392,30.12 516,29.52 517.728,29.52 C519.456,29.52 521.064,30.096 522.552,31.248 C524.04,32.4 524.784,34.152 524.784,36.504 C524.784,38.856 523.992,40.632 522.408,41.832 C520.824,43.032 519.24,43.632 517.656,43.632 Z M549.672,55.656 C552.696,55.656 554.568,55.032 555.288,53.784 C555.672,53.064 555.9,52.428 555.972,51.876 C556.044,51.324 556.08,50.496 556.08,49.392 L556.08,49.392 L556.08,34.272 C556.08,32.976 556.644,31.872 557.772,30.96 C558.9,30.048 560.112,29.592 561.408,29.592 C562.704,29.592 563.748,29.784 564.54,30.168 C565.332,30.552 566.16,30.744 567.024,30.744 C568.752,30.744 570.072,29.832 570.984,28.008 C571.896,26.184 572.352,24.504 572.352,22.968 C572.352,21.432 572.052,20.316 571.452,19.62 C570.852,18.924 570.096,18.432 569.184,18.144 C568.272,17.856 567.432,17.652 566.664,17.532 C565.896,17.412 564.948,17.352 563.82,17.352 C562.692,17.352 561.384,17.76 559.896,18.576 C558.408,19.392 557.436,20.04 556.98,20.52 C556.524,21 556.176,21.408 555.936,21.744 C555.936,20.928 555.672,20.136 555.144,19.368 C554.424,18.264 552.624,17.712 549.744,17.712 C546.672,17.712 544.8,18.36 544.128,19.656 C543.792,20.328 543.588,20.94 543.516,21.492 C543.444,22.044 543.408,22.872 543.408,23.976 L543.408,23.976 L543.408,51.336 C543.504,52.728 543.936,53.76 544.704,54.432 C545.712,55.248 547.368,55.656 549.672,55.656 Z M592.632,72.648 C593.496,72.648 594.216,72.432 594.792,72 C595.368,71.568 595.788,71.112 596.052,70.632 C596.316,70.152 596.64,69.456 597.024,68.544 L597.024,68.544 L615.888,26.352 C615.888,26.304 616.08,25.896 616.464,25.128 C616.848,24.36 617.04,23.544 617.04,22.68 C617.04,20.904 615.624,19.392 612.792,18.144 C611.256,17.472 609.924,17.136 608.796,17.136 C607.668,17.136 606.792,17.544 606.168,18.36 C605.784,18.84 605.508,19.248 605.34,19.584 L605.34,19.584 L605.308571,19.6484082 C605.049524,20.1871837 603.8,22.9137143 601.56,27.828 C599.208,32.988 597.912,35.952 597.672,36.72 C595.512,33.216 593.244,29.436 590.868,25.38 C588.492,21.324 587.172,19.092 586.908,18.684 C586.644,18.276 586.224,17.88 585.648,17.496 C585.072,17.112 584.328,16.92 583.416,16.92 C582.504,16.92 581.232,17.4 579.6,18.36 C577.008,19.896 575.712,21.432 575.712,22.968 C575.712,23.736 576.192,24.912 577.152,26.496 L577.152,26.496 L591.48,50.616 C586.872,60.456 584.568,65.952 584.568,67.104 C584.568,68.832 585.984,70.32 588.816,71.568 C590.496,72.288 591.768,72.648 592.632,72.648 Z" id="Changethestory" fill="#006373"></path>
            <path d="M628.284,55.728 C631.188,55.728 633,55.032 633.72,53.64 C634.152,52.872 634.404,52.212 634.476,51.66 C634.548,51.108 634.584,50.256 634.584,49.104 L634.584,49.104 L634.584,48.816 C634.584,46.272 634.176,44.592 633.36,43.776 C632.256,42.768 630.252,42.264 627.348,42.264 C624.444,42.264 622.632,42.984 621.912,44.424 C621.528,45.144 621.3,45.792 621.228,46.368 C621.156,46.944 621.12,47.784 621.12,48.888 L621.12,48.888 L621.12,49.176 C621.12,51.72 621.588,53.448 622.524,54.36 C623.46,55.272 625.38,55.728 628.284,55.728 Z" id="." fill="#9DCAFA"></path>
        </g>
    </g>
</svg>